# xmcd
#
# Track frame offsets:
#	150
#	17360
#	33026
#	46934
#	60588
#	76552
#	92199
#	111628
#	126778
#	141856
#	156843
#	169923
#	184946
#	197957
#	213875
#	229122
#	244315
#	260814
#	275410
#	288038
#	301427
#
# Disc length: 4215 seconds
#
# Revision: 0
# Processed by: cddbd v1.5.2PL0 Copyright (c) Steve Scherf et al.
# Submitted via: EasyCDDAExtractor 16.0.9.1
#
DISCID=27107515
DTITLE=Hott Country Volume 237 Canada
DYEAR=2015
DGENRE=Country
TTITLE0=George Strait - Cold Beer Conversation
TTITLE1=Kip Moore - Running For You
TTITLE2=Tebey - Jealous Of The Sun
TTITLE3=Lindsay Ell - By The Way
TTITLE4=Chris Janson - Power Of Positive Drinkin'
TTITLE5=Keith Urban - Break On Me
TTITLE6=Charles Kelley - The Driver
TTITLE7=Brett Kissel - Pick Me Up
TTITLE8=Dylan Scott - Crazy Over Me
TTITLE9=Toby Keith - Beautiful Stranger
TTITLE10=Brett Eldredge - Drunk On Your Love
TTITLE11=Maddie and Tae - Shut Up And Fish
TTITLE12=George Canyon - I Got This
TTITLE13=David James - Some Hearts
TTITLE14=High Valley - Come On Down
TTITLE15=Jason Benoit - Cold Day Comin'
TTITLE16=Bobby Wills - Won't You Be Mine
TTITLE17=Small Town Pistols - Jester In A Crown
TTITLE18=Jordan McIntosh - All About The Girl
TTITLE19=Meredith Shaw - Good Day
TTITLE20=Carissa Leigh - So Long
EXTD=
EXTT0=
EXTT1=
EXTT2=
EXTT3=
EXTT4=
EXTT5=
EXTT6=
EXTT7=
EXTT8=
EXTT9=
EXTT10=
EXTT11=
EXTT12=
EXTT13=
EXTT14=
EXTT15=
EXTT16=
EXTT17=
EXTT18=
EXTT19=
EXTT20=
PLAYORDER=
